<?xml version="1.0" encoding="UTF-8" standalone="no"?>
<svg
   xmlns:dc="http://purl.org/dc/elements/1.1/"
   xmlns:cc="http://creativecommons.org/ns#"
   xmlns:rdf="http://www.w3.org/1999/02/22-rdf-syntax-ns#"
   xmlns:svg="http://www.w3.org/2000/svg"
   xmlns="http://www.w3.org/2000/svg"
   xmlns:sodipodi="http://sodipodi.sourceforge.net/DTD/sodipodi-0.dtd"
   xmlns:inkscape="http://www.inkscape.org/namespaces/inkscape"
   viewBox="0 0 100 100"
   version="1.1"
   id="svg3760"
   sodipodi:docname="Google_Earth_Logo.svg"
   width="100"
   height="100"
   inkscape:export-filename="/home/remipassmoilesel/projects/java/javafx-experiments/src/main/resources/images/logo.png"
   inkscape:export-xdpi="49.919998"
   inkscape:export-ydpi="49.919998"
   inkscape:version="0.92.1 r15371">
  <metadata
     id="metadata3766">
    <rdf:RDF>
      <cc:Work
         rdf:about="">
        <dc:format>image/svg+xml</dc:format>
        <dc:type
           rdf:resource="http://purl.org/dc/dcmitype/StillImage" />
        <dc:title></dc:title>
      </cc:Work>
    </rdf:RDF>
  </metadata>
  <defs
     id="defs3764" />
  <sodipodi:namedview
     pagecolor="#ffffff"
     bordercolor="#666666"
     borderopacity="1"
     objecttolerance="10"
     gridtolerance="10"
     guidetolerance="10"
     inkscape:pageopacity="0"
     inkscape:pageshadow="2"
     inkscape:window-width="1366"
     inkscape:window-height="716"
     id="namedview3762"
     showgrid="false"
     inkscape:zoom="1.9040323"
     inkscape:cx="20.272987"
     inkscape:cy="78.540538"
     inkscape:window-x="0"
     inkscape:window-y="0"
     inkscape:window-maximized="1"
     inkscape:current-layer="svg3760" />
  <clipPath
     id="a">
    <path
       d="M 23,12 C 23,18.1 18.1,23 12,23 5.9,23 1,18.1 1,12 1,5.9 5.9,1 12,1 18.1,1 23,5.9 23,12 Z"
       overflow="visible"
       id="path3745"
       inkscape:connector-curvature="0"
       style="overflow:visible" />
  </clipPath>
  <g
     id="g3775"
     transform="matrix(0.89508661,0,0,0.89508661,39.258961,-28.767623)">
    <path
       style="fill:none;stroke-width:4.58887482"
       inkscape:connector-curvature="0"
       id="path3743"
       d="M -43.066496,32.933504 H 67.066496 V 143.0665 H -43.066496 Z" />
    <g
       transform="matrix(4.5888746,0,0,4.5888746,-43.066496,32.933504)"
       id="g3750"
       clip-path="url(#a)">
      <path
         style="fill:#91bfff"
         inkscape:connector-curvature="0"
         id="path3748"
         d="M 23,12 C 23,18.1 18.1,23 12,23 5.9,23 1,18.1 1,12 1,5.9 5.9,1 12,1 18.1,1 23,5.9 23,12 Z" />
    </g>
    <path
       transform="matrix(4.5888746,0,0,4.5888746,-43.066496,32.933504)"
       style="fill:#4285f4"
       inkscape:connector-curvature="0"
       id="path3752"
       clip-path="url(#a)"
       d="m 1,12 c 0.3,-4.6 5.8,-7.7 11,0.2 4.5,6.9 10.1,5 10.9,1.3 V 23 H 1 Z" />
    <path
       transform="matrix(4.5888746,0,0,4.5888746,-43.066496,32.933504)"
       style="fill:#c4e1ff"
       inkscape:connector-curvature="0"
       id="path3754"
       clip-path="url(#a)"
       d="M 23,11.5 C 21.5,13.1 18.5,13.7 15.4,8.8 11.6,2.4 7.5,1.5 3.5,5 V 1 H 23 Z" />
    <path
       transform="matrix(4.5888746,0,0,4.5888746,-43.066496,32.933504)"
       style="fill:#f5f5f5"
       inkscape:connector-curvature="0"
       id="path3756"
       clip-path="url(#a)"
       d="m 8,1.7 c 4.8,-1.5 8.3,1.3 10.7,5 1.6,2.5 2.6,2.6 3.9,2.2 V 1 H 8 Z" />
    <path
       transform="matrix(4.5888746,0,0,4.5888746,-43.066496,32.933504)"
       style="fill:#255fdb"
       inkscape:connector-curvature="0"
       id="path3758"
       clip-path="url(#a)"
       d="M 21.2,18 C 18.6,21.2 13,21.9 8.5,16 4.7,11 1.3,13.4 2,16.6 V 23 h 19.2 z" />
  </g>
</svg>
